<mxfile host="app.diagrams.net" modified="2023-10-13T03:18:54.293Z" agent="Mozilla/5.0 (Macintosh; Intel Mac OS X 10_15_7) AppleWebKit/537.36 (KHTML, like Gecko) Chrome/117.0.0.0 Safari/537.36" version="22.0.4" etag="tIF93bg-ELXZruUq7M9E" type="github">
  <diagram name="第 1 页" id="4GPVIhq6iiRyrtk1s9qL">
    <mxGraphModel>
      <root>
        <mxCell id="0" />
        <mxCell id="1" parent="0" />
      </root>
    </mxGraphModel>
  </diagram>
</mxfile>
